<svg xmlns="http://www.w3.org/2000/svg" viewBox="0 0 64 64">
  <rect width="64" height="64" fill="#fef9f3"/>
  <!-- de wiebelige zon: niet rond, ongelijke stralen -->
  <g stroke="#3f3b39" stroke-width="3.2" stroke-linecap="round" fill="none">
    <path d="M32 6 L32.6 13"/>
    <path d="M51.5 12.5 L46.6 17.4"/>
    <path d="M58 33 L50.5 32.2"/>
    <path d="M50.8 52.6 L46 47.4"/>
    <path d="M31.4 58 L32 50.6"/>
    <path d="M12.4 51.2 L17.6 46.4"/>
    <path d="M6 31.5 L13.6 32.4"/>
    <path d="M13 12.6 L17.8 17.6"/>
  </g>
  <path d="M32 17.5 C40.6 17 47.2 23.4 46.7 32.3 C46.2 40.8 40.1 47 32 46.6 C23.2 46.2 17.4 40.2 17.8 31.6 C18.2 23.2 24 17.9 32 17.5 Z" fill="#ff9272" stroke="#531b0b" stroke-width="2"/>
</svg>
